<svg id="Layer_1" data-name="Layer 1" xmlns="http://www.w3.org/2000/svg" viewBox="0 0 285.67 87.82"><defs><style>.cls-1,.cls-2{fill:#116936;}.cls-1,.cls-4{fill-rule:evenodd;}.cls-3{fill:#010101;}.cls-4{fill:#fecf08;}</style></defs><title>Untitled-1</title><path class="cls-1" d="M822.63,527.38v4a4.11,4.11,0,0,0,.15,1.45,1,1,0,0,0,.5.48,3.32,3.32,0,0,0,1.33.18v.39h-7.24v-.39a3.35,3.35,0,0,0,1.34-.18,1.16,1.16,0,0,0,.5-.48,4.64,4.64,0,0,0,.13-1.45v-9.24a4.76,4.76,0,0,0-.13-1.46,1.07,1.07,0,0,0-.51-.47,3.29,3.29,0,0,0-1.33-.18v-.39h6.21a7,7,0,0,1,4.4,1.09,3.39,3.39,0,0,1,1.33,2.73,3.52,3.52,0,0,1-.86,2.38,4.44,4.44,0,0,1-2.37,1.34,16.17,16.17,0,0,1-3.45.25Zm0-7v6.15c.23,0,.41,0,.53,0a2.52,2.52,0,0,0,2-.76,3.41,3.41,0,0,0,.7-2.36,3.32,3.32,0,0,0-.7-2.32,2.71,2.71,0,0,0-2.07-.73Zm20.9-.82v3.85h-.38a5.93,5.93,0,0,0-.74-1.91,2.82,2.82,0,0,0-1.13-.93,3.48,3.48,0,0,0-1.39-.19h-1.06v11a5.13,5.13,0,0,0,.11,1.37,1.14,1.14,0,0,0,.48.47,1.85,1.85,0,0,0,1,.21h.47v.39H833.4v-.39h.47a2,2,0,0,0,1-.22,1.05,1.05,0,0,0,.43-.51,4.56,4.56,0,0,0,.11-1.32v-11h-1a3,3,0,0,0-2.09.61,4,4,0,0,0-1.15,2.42h-.4v-3.85Zm20-.32.11,4.74h-.4a4.93,4.93,0,0,0-1.41-2.87,3.43,3.43,0,0,0-2.43-1.09,2.18,2.18,0,0,0-1.59.57,1.76,1.76,0,0,0-.59,1.32,1.66,1.66,0,0,0,.21.84,3.41,3.41,0,0,0,.91,1,21.18,21.18,0,0,0,2.15,1.23,9.54,9.54,0,0,1,3.17,2.32,4.09,4.09,0,0,1,.81,2.5,4.17,4.17,0,0,1-1.31,3.07,4.53,4.53,0,0,1-3.32,1.29,5.19,5.19,0,0,1-1.2-.14,8.82,8.82,0,0,1-1.41-.52,2,2,0,0,0-.78-.2.88.88,0,0,0-.54.2,1.43,1.43,0,0,0-.47.65h-.36v-5.38h.36a6.31,6.31,0,0,0,1.68,3.46,3.8,3.8,0,0,0,2.67,1.19,2.4,2.4,0,0,0,1.76-.64,2,2,0,0,0,.41-2.47,3.14,3.14,0,0,0-.77-.9,11.32,11.32,0,0,0-1.82-1.1,15.64,15.64,0,0,1-2.62-1.63,5,5,0,0,1-1.24-1.5,4.07,4.07,0,0,1,3.71-5.92,4.86,4.86,0,0,1,1.27.16,6.24,6.24,0,0,1,1.13.47,2.51,2.51,0,0,0,.93.34.52.52,0,0,0,.41-.17,2,2,0,0,0,.28-.8Zm9.57.12a6.46,6.46,0,0,1,5.2,2,7.36,7.36,0,0,1,2,5.29,7.86,7.86,0,0,1-1.49,4.76,6.5,6.5,0,0,1-5.58,2.74,6.62,6.62,0,0,1-5.6-2.61,7.91,7.91,0,0,1-1.56-4.88,7.35,7.35,0,0,1,2-5.29,6.25,6.25,0,0,1,5-2Zm.12.67a3,3,0,0,0-2.8,2,11.24,11.24,0,0,0-.78,4.7,9.53,9.53,0,0,0,1.21,5.39,2.92,2.92,0,0,0,4,.69,4.25,4.25,0,0,0,1.35-2.15,12.32,12.32,0,0,0,.49-3.84,13.46,13.46,0,0,0-.5-4.23,4.14,4.14,0,0,0-1.26-2,2.82,2.82,0,0,0-1.76-.58Zm21.32-.79v4.93h-.39a5.3,5.3,0,0,0-1.62-3,4,4,0,0,0-2.69-1,3.8,3.8,0,0,0-2.3.76,4.43,4.43,0,0,0-1.53,2,9.52,9.52,0,0,0-.63,3.53,12.63,12.63,0,0,0,.46,3.48,4.63,4.63,0,0,0,1.42,2.37,3.78,3.78,0,0,0,2.51.81,4.68,4.68,0,0,0,2.32-.59,8.2,8.2,0,0,0,2.22-2v1.23a7.36,7.36,0,0,1-2.35,1.81,6.65,6.65,0,0,1-2.85.57,7.78,7.78,0,0,1-3.81-.92,6.24,6.24,0,0,1-2.57-2.62,7.76,7.76,0,0,1-.9-3.65,7.88,7.88,0,0,1,1-3.86,7.27,7.27,0,0,1,2.71-2.84,7,7,0,0,1,3.62-1,7.85,7.85,0,0,1,3,.64,4.63,4.63,0,0,0,1.16.38.75.75,0,0,0,.55-.24,1.48,1.48,0,0,0,.3-.78Zm6.66,1.14v5.85h.39a3.34,3.34,0,0,0,1.45-.28,2.33,2.33,0,0,0,1-1,4.64,4.64,0,0,0,.51-1.82h.34v7.15h-.34a3.75,3.75,0,0,0-1-2.67,3,3,0,0,0-1.89-.65h-.39v4.36a4.58,4.58,0,0,0,.12,1.37,1.09,1.09,0,0,0,.44.47,1.66,1.66,0,0,0,.9.21h.44v.39h-7v-.39h.44a1.74,1.74,0,0,0,.94-.22,1,1,0,0,0,.4-.51,4.72,4.72,0,0,0,.1-1.32V522a5.25,5.25,0,0,0-.1-1.37,1.1,1.1,0,0,0-.44-.48,1.79,1.79,0,0,0-.9-.2h-.44v-.39h11.3v4.08H907a3.9,3.9,0,0,0-.71-2.13,3.09,3.09,0,0,0-1.64-1,9.76,9.76,0,0,0-2.2-.16Zm14.22,13v.39h-7v-.39h.44a1.72,1.72,0,0,0,.94-.22,1,1,0,0,0,.4-.51,4.56,4.56,0,0,0,.11-1.32V522a5.07,5.07,0,0,0-.11-1.37,1,1,0,0,0-.44-.48,1.77,1.77,0,0,0-.9-.2h-.44v-.39h7V520H915a1.74,1.74,0,0,0-.94.22,1,1,0,0,0-.4.5,4.7,4.7,0,0,0-.11,1.33v9.36a5.13,5.13,0,0,0,.11,1.37,1.06,1.06,0,0,0,.45.47,1.65,1.65,0,0,0,.89.21Zm5.5-13.85,6.61,8.83V522.3a3,3,0,0,0-.34-1.73,1.83,1.83,0,0,0-1.59-.59v-.39h4.42V520a3,3,0,0,0-1.14.3,1.16,1.16,0,0,0-.45.59,4.31,4.31,0,0,0-.17,1.43v11.86H928L918.9,522.3v9.05a2,2,0,0,0,.53,1.66,1.82,1.82,0,0,0,1.2.43H921v.39H916.2v-.39a2.09,2.09,0,0,0,1.54-.48,2.37,2.37,0,0,0,.43-1.61V521.3l-.28-.38a2.67,2.67,0,0,0-.75-.74,2.09,2.09,0,0,0-.94-.2v-.39Z" transform="translate(-817.37 -495.9)"/><path class="cls-1" d="M994.4,533.44v.39h-7.11v-.39h.45a1.76,1.76,0,0,0,1-.22.92.92,0,0,0,.4-.51,4.09,4.09,0,0,0,.12-1.32V522a4.54,4.54,0,0,0-.12-1.37,1,1,0,0,0-.44-.48,1.81,1.81,0,0,0-.91-.2h-.45v-.39h7.11V520H994a1.76,1.76,0,0,0-1,.22.91.91,0,0,0-.41.5,4.34,4.34,0,0,0-.11,1.33v9.36a4.72,4.72,0,0,0,.11,1.37,1.06,1.06,0,0,0,.45.47,1.73,1.73,0,0,0,.91.21Zm5.58-13.85,6.71,8.83V522.3a2.93,2.93,0,0,0-.35-1.73,1.86,1.86,0,0,0-1.61-.59v-.39h4.49V520a3,3,0,0,0-1.16.3,1.17,1.17,0,0,0-.46.59,4.38,4.38,0,0,0-.16,1.43v11.86h-.35L997.9,522.3v9.05a2,2,0,0,0,.54,1.66,1.86,1.86,0,0,0,1.22.43h.32v.39h-4.82v-.39a2.18,2.18,0,0,0,1.57-.48,2.37,2.37,0,0,0,.44-1.61V521.3l-.29-.38a2.57,2.57,0,0,0-.77-.74,2.07,2.07,0,0,0-1-.2v-.39Zm10,14.24v-.39h.45a1.64,1.64,0,0,0,.91-.2,1.11,1.11,0,0,0,.47-.53,5.16,5.16,0,0,0,.09-1.32V522a4.54,4.54,0,0,0-.12-1.37,1,1,0,0,0-.44-.48,1.81,1.81,0,0,0-.91-.2H1010v-.39h6.09a9.4,9.4,0,0,1,3.92.69,5.92,5.92,0,0,1,2.75,2.57,8,8,0,0,1,.94,3.9,8.25,8.25,0,0,1-.46,2.77,6.48,6.48,0,0,1-1.2,2.09,5.69,5.69,0,0,1-1.69,1.32,8.8,8.8,0,0,1-2.34.77,9.85,9.85,0,0,1-1.92.13Zm5.19-13.43v11.11a4.43,4.43,0,0,0,.07,1.08.59.59,0,0,0,.28.3,1.51,1.51,0,0,0,.78.16,3,3,0,0,0,2.56-1.2,8.44,8.44,0,0,0,1.2-5,9.94,9.94,0,0,0-.82-4.38,3.63,3.63,0,0,0-1.68-1.75,6.11,6.11,0,0,0-2.39-.31Zm17.3-1a6.61,6.61,0,0,1,5.28,2,7.35,7.35,0,0,1,2,5.29,7.81,7.81,0,0,1-1.51,4.76,6.64,6.64,0,0,1-5.67,2.74,6.73,6.73,0,0,1-5.67-2.61,7.75,7.75,0,0,1-1.59-4.88,7.29,7.29,0,0,1,2.06-5.29,6.38,6.38,0,0,1,5.07-2Zm.12.67a3.08,3.08,0,0,0-2.84,2,11.22,11.22,0,0,0-.79,4.7,9.52,9.52,0,0,0,1.22,5.39,3,3,0,0,0,4.12.69,4.33,4.33,0,0,0,1.37-2.15,12.32,12.32,0,0,0,.49-3.84,13.46,13.46,0,0,0-.5-4.23,4.15,4.15,0,0,0-1.28-2,2.89,2.89,0,0,0-1.79-.58Zm13-.47,6.7,8.83V522.3a2.93,2.93,0,0,0-.35-1.73,1.86,1.86,0,0,0-1.61-.59v-.39h4.49V520a3,3,0,0,0-1.16.3,1.17,1.17,0,0,0-.46.59,4.38,4.38,0,0,0-.16,1.43v11.86h-.35l-9.19-11.86v9.05a2,2,0,0,0,.54,1.66,1.86,1.86,0,0,0,1.22.43h.33v.39h-4.83v-.39a2.18,2.18,0,0,0,1.57-.48,2.37,2.37,0,0,0,.44-1.61V521.3l-.29-.38a2.57,2.57,0,0,0-.77-.74,2.07,2.07,0,0,0-1-.2v-.39Zm15.31.82v5.79h.27a2.11,2.11,0,0,0,1.87-.84,5.45,5.45,0,0,0,.75-2.51h.38v7.45h-.38a5.88,5.88,0,0,0-.51-2,2.29,2.29,0,0,0-.9-1,3.26,3.26,0,0,0-1.48-.27v4a6.34,6.34,0,0,0,.09,1.44.79.79,0,0,0,.36.43,1.51,1.51,0,0,0,.84.17h.81a4.74,4.74,0,0,0,3-.92,5.17,5.17,0,0,0,1.65-2.82h.37l-.61,4.53h-11.75v-.39h.45a1.8,1.8,0,0,0,1-.22,1,1,0,0,0,.4-.51,4.56,4.56,0,0,0,.11-1.32V522a8.38,8.38,0,0,0-.05-1.19,1,1,0,0,0-.37-.57,1.72,1.72,0,0,0-1-.29h-.45v-.39h11.38v4.21h-.38a5.13,5.13,0,0,0-.82-2.22,3,3,0,0,0-1.49-1,7.47,7.47,0,0,0-2.1-.19Zm17.74-1.14.11,4.74h-.41a4.89,4.89,0,0,0-1.43-2.87,3.48,3.48,0,0,0-2.46-1.09,2.26,2.26,0,0,0-1.62.57,1.76,1.76,0,0,0-.59,1.32,1.66,1.66,0,0,0,.21.84,3.37,3.37,0,0,0,.93,1,21.14,21.14,0,0,0,2.17,1.23,9.53,9.53,0,0,1,3.22,2.32,4,4,0,0,1,.83,2.5,4.15,4.15,0,0,1-1.33,3.07,4.66,4.66,0,0,1-3.38,1.29,5.28,5.28,0,0,1-1.21-.14,8.93,8.93,0,0,1-1.43-.52,2.11,2.11,0,0,0-.8-.2,1,1,0,0,0-.55.2,1.5,1.5,0,0,0-.47.65h-.37v-5.38h.37a6.32,6.32,0,0,0,1.7,3.46,3.9,3.9,0,0,0,2.71,1.19,2.45,2.45,0,0,0,1.79-.64,2,2,0,0,0,.67-1.49,2.05,2.05,0,0,0-.26-1,3.14,3.14,0,0,0-.77-.9,11.48,11.48,0,0,0-1.85-1.1,15.94,15.94,0,0,1-2.66-1.63,4.86,4.86,0,0,1-1.25-1.5,3.89,3.89,0,0,1-.44-1.83,4,4,0,0,1,1.19-2.9,4.07,4.07,0,0,1,3-1.19,4.93,4.93,0,0,1,1.28.16,6.34,6.34,0,0,1,1.15.47,2.56,2.56,0,0,0,1,.34.53.53,0,0,0,.41-.17,1.87,1.87,0,0,0,.28-.8Zm9.3,14.17v.39h-7.11v-.39h.45a1.78,1.78,0,0,0,1-.22.92.92,0,0,0,.4-.51,4.09,4.09,0,0,0,.12-1.32V522a4.54,4.54,0,0,0-.12-1.37,1,1,0,0,0-.44-.48,1.83,1.83,0,0,0-.91-.2h-.45v-.39H1088V520h-.45a1.8,1.8,0,0,0-1,.22,1,1,0,0,0-.41.5A4.7,4.7,0,0,0,1086,522v9.36a4.58,4.58,0,0,0,.12,1.37,1.06,1.06,0,0,0,.45.47,1.7,1.7,0,0,0,.91.21Zm9-3.67h-4.8l-.57,1.39a3.11,3.11,0,0,0-.28,1.15,1,1,0,0,0,.46.88,3.85,3.85,0,0,0,1.33.25v.39h-4.52v-.39a2,2,0,0,0,1.2-.64,7.94,7.94,0,0,0,1.16-2.14l4.87-11.37h.19l4.9,11.68a7.12,7.12,0,0,0,1.15,2.09,1.51,1.51,0,0,0,1,.38v.39h-6.58v-.39h.27a2,2,0,0,0,1.11-.23.57.57,0,0,0,.23-.49,1.06,1.06,0,0,0-.07-.38,6.84,6.84,0,0,0-.3-.79l-.72-1.78Zm-.34-.77-2-4.91-2.09,4.91Z" transform="translate(-817.37 -495.9)"/><path class="cls-1" d="M916.75,566.6l.11,4.74h-.41a5,5,0,0,0-1.41-2.87,3.41,3.41,0,0,0-2.42-1.09,2.17,2.17,0,0,0-1.6.58,1.79,1.79,0,0,0-.59,1.31,1.64,1.64,0,0,0,.21.84,3.46,3.46,0,0,0,.92,1,20.62,20.62,0,0,0,2.14,1.23,9.43,9.43,0,0,1,3.17,2.32,4,4,0,0,1,.82,2.5,4.17,4.17,0,0,1-1.31,3.07,4.57,4.57,0,0,1-3.33,1.29,5.19,5.19,0,0,1-1.2-.14,9,9,0,0,1-1.41-.51,2.07,2.07,0,0,0-.78-.21.92.92,0,0,0-.54.21,1.47,1.47,0,0,0-.47.64h-.36v-5.38h.36a6.31,6.31,0,0,0,1.68,3.46,3.79,3.79,0,0,0,2.67,1.19,2.42,2.42,0,0,0,1.77-.64,2,2,0,0,0,.4-2.47,3,3,0,0,0-.77-.89,10.33,10.33,0,0,0-1.81-1.11A15.4,15.4,0,0,1,910,574a4.79,4.79,0,0,1-1.23-1.5,3.86,3.86,0,0,1-.43-1.83,4,4,0,0,1,4.14-4.09,4.84,4.84,0,0,1,1.26.16,6.24,6.24,0,0,1,1.13.47,2.54,2.54,0,0,0,.94.34.51.51,0,0,0,.4-.17,2,2,0,0,0,.28-.8Z" transform="translate(-817.37 -495.9)"/><path class="cls-1" d="M931.52,568.7a6.52,6.52,0,0,0-5.21-2,6.26,6.26,0,0,0-5,2,7.3,7.3,0,0,0-2,5.29,7.85,7.85,0,0,0,1.56,4.88,6.6,6.6,0,0,0,5.59,2.61,6.5,6.5,0,0,0,5.59-2.73,8,8,0,0,0,1.49-4.77A7.41,7.41,0,0,0,931.52,568.7Zm-2,9.32a4.41,4.41,0,0,1-1.36,2.16,2.75,2.75,0,0,1-1.7.52,2.7,2.7,0,0,1-2.35-1.22,9.61,9.61,0,0,1-1.21-5.39,11.24,11.24,0,0,1,.78-4.7,3,3,0,0,1,2.8-2,2.86,2.86,0,0,1,1.76.58,4.19,4.19,0,0,1,1.27,2,13.52,13.52,0,0,1,.49,4.23A12.66,12.66,0,0,1,929.47,578Z" transform="translate(-817.37 -495.9)"/><path class="cls-1" d="M947.75,566.6v4.93h-.39a5.34,5.34,0,0,0-1.62-3,4,4,0,0,0-2.69-1,3.77,3.77,0,0,0-2.3.77,4.4,4.4,0,0,0-1.53,2,9.73,9.73,0,0,0-.62,3.53,12.59,12.59,0,0,0,.45,3.48,4.64,4.64,0,0,0,1.43,2.37,3.77,3.77,0,0,0,2.51.81,4.67,4.67,0,0,0,2.31-.59,8,8,0,0,0,2.22-2v1.23a7.12,7.12,0,0,1-2.35,1.81,6.65,6.65,0,0,1-2.85.57,7.78,7.78,0,0,1-3.81-.92,6.3,6.3,0,0,1-2.57-2.62,7.73,7.73,0,0,1-.9-3.65,7.91,7.91,0,0,1,1-3.86,7.27,7.27,0,0,1,2.71-2.84,7,7,0,0,1,3.62-1,7.73,7.73,0,0,1,3,.65,4.48,4.48,0,0,0,1.15.38.75.75,0,0,0,.55-.25,1.34,1.34,0,0,0,.3-.78Z" transform="translate(-817.37 -495.9)"/><path class="cls-1" d="M954.42,567.74v5.85h.39a3.37,3.37,0,0,0,1.45-.28,2.37,2.37,0,0,0,1-1,4.59,4.59,0,0,0,.51-1.82h.34v7.15h-.34a3.75,3.75,0,0,0-1-2.67,3,3,0,0,0-1.89-.65h-.39v4.36a5.07,5.07,0,0,0,.11,1.37,1.13,1.13,0,0,0,.45.48,1.65,1.65,0,0,0,.89.2h.45v.39h-7v-.39h.45a1.71,1.71,0,0,0,.93-.22.89.89,0,0,0,.4-.5,4.7,4.7,0,0,0,.11-1.33v-9.36a5.07,5.07,0,0,0-.11-1.37,1,1,0,0,0-.44-.48,1.75,1.75,0,0,0-.89-.2h-.45v-.39h11.3V571h-.4a4,4,0,0,0-.71-2.14,3,3,0,0,0-1.64-1,9.72,9.72,0,0,0-2.19-.16Z" transform="translate(-817.37 -495.9)"/><path class="cls-1" d="M968.63,580.77v.39h-7v-.39h.45a1.74,1.74,0,0,0,.94-.22.92.92,0,0,0,.39-.5,4.7,4.7,0,0,0,.11-1.33v-9.36a5.07,5.07,0,0,0-.11-1.37,1,1,0,0,0-.44-.48,1.75,1.75,0,0,0-.89-.2h-.45v-.39h7v.39h-.45a1.71,1.71,0,0,0-.93.22,1,1,0,0,0-.41.5,4.7,4.7,0,0,0-.11,1.33v9.36a5.07,5.07,0,0,0,.11,1.37,1.13,1.13,0,0,0,.45.48,1.65,1.65,0,0,0,.89.2Z" transform="translate(-817.37 -495.9)"/><path class="cls-1" d="M974.13,566.92l6.62,8.83v-6.12a3,3,0,0,0-.35-1.73,1.86,1.86,0,0,0-1.59-.59v-.39h4.43v.39a3.42,3.42,0,0,0-1.15.3,1.19,1.19,0,0,0-.45.6,4.27,4.27,0,0,0-.16,1.42v11.86h-.34l-9.06-11.86v9a2.08,2.08,0,0,0,.53,1.66,1.83,1.83,0,0,0,1.21.43h.31v.39h-4.75v-.39a2,2,0,0,0,1.54-.48,2.37,2.37,0,0,0,.44-1.61v-10l-.29-.38a2.69,2.69,0,0,0-.75-.74,2.09,2.09,0,0,0-.94-.2v-.39Z" transform="translate(-817.37 -495.9)"/><path class="cls-1" d="M996.51,570.19a5.82,5.82,0,0,0-2.75-2.57,9.23,9.23,0,0,0-3.92-.7h-6.09v.39h.45a1.81,1.81,0,0,1,.91.2,1.07,1.07,0,0,1,.45.48,5.07,5.07,0,0,1,.11,1.37v9.36a5.32,5.32,0,0,1-.09,1.33,1.2,1.2,0,0,1-.47.53,1.74,1.74,0,0,1-.91.19h-.45v.39h6.09a11,11,0,0,0,1.92-.12,9.16,9.16,0,0,0,2.34-.78,5.86,5.86,0,0,0,1.7-1.32,6.66,6.66,0,0,0,1.19-2.09,8.17,8.17,0,0,0,.46-2.77A7.94,7.94,0,0,0,996.51,570.19Zm-3.88,9a3,3,0,0,1-2.56,1.19,1.63,1.63,0,0,1-.78-.15.58.58,0,0,1-.27-.31,3.78,3.78,0,0,1-.08-1.08V567.73a6.07,6.07,0,0,1,2.39.32,3.56,3.56,0,0,1,1.68,1.74,9.94,9.94,0,0,1,.82,4.38A8.46,8.46,0,0,1,992.63,579.19Z" transform="translate(-817.37 -495.9)"/><path class="cls-1" d="M1011.52,568.7a6.64,6.64,0,0,0-5.28-2,6.42,6.42,0,0,0-5.07,2,7.29,7.29,0,0,0-2.06,5.29,7.75,7.75,0,0,0,1.59,4.88,6.73,6.73,0,0,0,5.67,2.61,6.63,6.63,0,0,0,5.67-2.73,7.86,7.86,0,0,0,1.51-4.77A7.35,7.35,0,0,0,1011.52,568.7Zm-2.08,9.32a4.42,4.42,0,0,1-1.37,2.16,2.84,2.84,0,0,1-1.73.52,2.77,2.77,0,0,1-2.39-1.22,9.52,9.52,0,0,1-1.22-5.39,11.22,11.22,0,0,1,.79-4.7,3.08,3.08,0,0,1,2.84-2,3,3,0,0,1,1.79.58,4.2,4.2,0,0,1,1.28,2,13.17,13.17,0,0,1,.5,4.23A12.32,12.32,0,0,1,1009.44,578Z" transform="translate(-817.37 -495.9)"/><path class="cls-2" d="M903.29,569.72a9.87,9.87,0,0,1,4-4.17v.58a6.32,6.32,0,0,0-2.11,2.37,24.41,24.41,0,0,0,0,12.28,6.28,6.28,0,0,0,2.1,2.36v.58a9.42,9.42,0,0,1-3.34-3,11.08,11.08,0,0,1-.67-11Z" transform="translate(-817.37 -495.9)"/><path class="cls-2" d="M1017.5,578.7a11.18,11.18,0,0,1-1.94,3.12,8.32,8.32,0,0,1-1.49,1.31,5,5,0,0,1-1,.59v-.58a6.36,6.36,0,0,0,2.12-2.4,17,17,0,0,0,.78-6.11,16.85,16.85,0,0,0-.79-6.13,6.32,6.32,0,0,0-2.11-2.37v-.58a9.85,9.85,0,0,1,3.94,4,11.15,11.15,0,0,1,1.21,5.24A11.78,11.78,0,0,1,1017.5,578.7Z" transform="translate(-817.37 -495.9)"/><path class="cls-3" d="M973,533.85l-11.1-11.1v-9.4l6.27,6.27,4.83-4.84-11.1-11.1v-1.4l1.56-1.55-4.83-4.83-4.82,4.83,1.36,1.35v1.8l-10.91,10.9,10.91,10.91v9.39L949.13,529l-4.84,4.84,10.91,10.9v1.8l-1.36,1.36,4.82,4.82,4.83-4.82-1.56-1.56V545ZM954,514.78l1.23-1.23V516Zm9.39,19.07-1.43,1.43v-2.86Z" transform="translate(-817.37 -495.9)"/><polygon class="cls-4" points="155.46 18.88 141.29 4.71 127.12 18.88 146.19 37.95 141.29 42.84 131.76 33.31 127.12 37.95 141.29 52.12 155.46 37.95 136.4 18.88 141.29 13.98 150.83 23.52 155.46 18.88"/></svg>